<svg width="52" height="52" viewBox="0 0 52 52" fill="none" xmlns="http://www.w3.org/2000/svg">
<path fill-rule="evenodd" clip-rule="evenodd" d="M41.287 38.5957C41.0825 38.6003 40.8775 38.6026 40.672 38.6026C25.6087 38.6026 13.3975 26.3914 13.3975 11.3281C13.3975 11.1225 13.3998 10.9175 13.4043 10.713C8.86526 14.3494 5.959 19.9404 5.959 26.205C5.959 37.1601 14.8399 46.041 25.795 46.041C32.0596 46.041 37.6506 43.1348 41.287 38.5957ZM44.3072 33.349C43.1242 33.5428 41.9099 33.6436 40.672 33.6436C28.3475 33.6436 18.3565 23.6526 18.3565 11.3281C18.3565 10.0902 18.4573 8.87583 18.6511 7.69279C18.9787 5.69329 19.5721 3.78321 20.3937 2C18.258 2.47448 16.2259 3.22441 14.3368 4.21059C6.41064 8.34826 1 16.6448 1 26.205C1 39.8989 12.1011 51 25.795 51C35.3552 51 43.6517 45.5894 47.7894 37.6633C48.7756 35.7742 49.5255 33.7421 50 31.6064C48.2168 32.428 46.3067 33.0214 44.3072 33.349Z" fill="white"/>
<path d="M20.8478 2.20924L21.2699 1.29315L20.2853 1.5119C18.1061 1.99603 16.0328 2.76121 14.1054 3.76735C6.02068 7.9878 0.5 16.4513 0.5 26.205C0.5 40.175 11.825 51.5 25.795 51.5C35.5487 51.5 44.0122 45.9794 48.2326 37.8947C49.2388 35.9673 50.004 33.894 50.4881 31.7149L50.7069 30.7302L49.7908 31.1523C48.0478 31.9554 46.1808 32.5353 44.2264 32.8555C43.07 33.045 41.8827 33.1436 40.672 33.1436C28.6236 33.1436 18.8565 23.3764 18.8565 11.3281C18.8565 10.1174 18.9551 8.93005 19.1446 7.77363C19.4648 5.81917 20.0447 3.95223 20.8478 2.20924ZM40.2057 39.0987C36.6633 43.0538 31.5175 45.541 25.795 45.541C15.116 45.541 6.459 36.884 6.459 26.205C6.459 20.4825 8.94627 15.3367 12.9013 11.7943C13.1477 26.7635 25.2365 38.8523 40.2057 39.0987Z" stroke="black" stroke-opacity="0.2"/>
</svg>
