<svg width="20" height="21" viewBox="0 0 20 21" fill="none" xmlns="http://www.w3.org/2000/svg">
<path d="M3.50673 13.001C4.38139 12.9984 5.22295 12.6663 5.86373 12.071L12.1237 15.648C11.6902 17.3422 12.5662 19.0979 14.1807 19.7702C15.7952 20.4425 17.6584 19.8275 18.5555 18.3262C19.4525 16.825 19.1114 14.8928 17.7545 13.7895C16.3975 12.6862 14.4364 12.7465 13.1497 13.931L6.88973 10.354C6.95536 10.103 6.9916 9.8453 6.99773 9.58598L13.1487 6.07098C14.3696 7.18091 16.2011 7.28383 17.5387 6.31765C18.8763 5.35148 19.3541 3.58042 18.6841 2.07256C18.0141 0.564712 16.3794 -0.267618 14.7659 0.0775427C13.1523 0.422703 12.0012 1.85097 12.0067 3.50098C12.0103 3.78906 12.0496 4.07558 12.1237 4.35398L6.43973 7.60098C5.52923 6.1924 3.74745 5.62774 2.19184 6.25479C0.636228 6.88184 -0.255877 8.52431 0.0649922 10.1706C0.385862 11.8168 1.8295 13.004 3.50673 13.001Z" fill="#2E3A59"/>
</svg>
