<svg width="51" height="51" viewBox="0 0 51 51" fill="none" xmlns="http://www.w3.org/2000/svg">
<path d="M27.95 50H23.05V42.65H27.95V50ZM41.0918 44.5561L35.8954 39.3597L39.3596 35.8954L44.5586 41.0942L41.0967 44.5561H41.0918ZM9.9082 44.5561L6.44145 41.0918L11.6355 35.8929L15.1022 39.3572L9.9082 44.5537V44.5561ZM25.5 37.7672C18.7257 37.7644 13.2359 32.2711 13.2378 25.4967C13.2396 18.7224 18.7322 13.2319 25.5065 13.2329C32.2809 13.2338 37.772 18.7257 37.772 25.5C37.7653 32.2741 32.2741 37.7631 25.5 37.7672ZM25.5 18.1329C21.4319 18.1356 18.1359 21.4351 18.1378 25.5033C18.1396 29.5714 21.4384 32.868 25.5065 32.8671C29.5747 32.8662 32.872 29.5681 32.872 25.5C32.868 21.431 29.569 18.1342 25.5 18.1329ZM50 27.95H42.65V23.05H50V27.95ZM8.35 27.95H1V23.05H8.35V27.95ZM39.3572 15.1071L35.8954 11.6404L41.0918 6.44145L44.5586 9.9082L39.3596 15.1047L39.3572 15.1071ZM11.6404 15.1071L6.44635 9.91065L9.9131 6.44635L15.1071 11.6452L11.6428 15.1047L11.6404 15.1071ZM27.95 8.35H23.05V1H27.95V8.35Z" fill="#0FCD2D"/>
<path d="M27.95 50.5H28.45V50V42.65V42.15H27.95H23.05H22.55V42.65V50V50.5H23.05H27.95ZM40.7382 44.9097L40.8847 45.0561H41.0918H41.0967H41.3038L41.4503 44.9097L44.9121 41.4478L45.2657 41.0942L44.9121 40.7407L39.7132 35.5418L39.3596 35.1882L39.0061 35.5418L35.5418 39.0061L35.1882 39.3597L35.5418 39.7132L40.7382 44.9097ZM9.55477 44.9098L10.4082 45.7626V44.7607L15.4558 39.7107L15.8093 39.357L15.4556 39.0035L11.9889 35.5392L11.6352 35.1857L11.2817 35.5395L6.08773 40.7384L5.73439 41.0921L6.08802 41.4455L9.55477 44.9098ZM25.4998 38.2672H25.5003C32.5502 38.2629 38.265 32.5504 38.272 25.5005V25.5C38.272 18.4496 32.557 12.7338 25.5066 12.7329C18.4562 12.7319 12.7396 18.4462 12.7378 25.4966C12.7359 32.547 18.4494 38.2643 25.4998 38.2672ZM50 28.45H50.5V27.95V23.05V22.55H50H42.65H42.15V23.05V27.95V28.45H42.65H50ZM8.35 28.45H8.85V27.95V23.05V22.55H8.35H1H0.5V23.05V27.95V28.45H1H8.35ZM39.0034 15.4604L39.357 15.8145L39.7108 15.4606L39.7131 15.4583L39.7133 15.4581L44.912 10.2618L45.2657 9.90828L44.9121 9.55465L41.4454 6.0879L41.0917 5.73426L40.7382 6.08798L35.5417 11.2869L35.1886 11.6402L35.5415 11.9937L39.0034 15.4604ZM11.2867 15.4606L11.6403 15.8143L11.9939 15.4607L11.9961 15.4585L11.9964 15.4582L15.4604 11.9991L15.8143 11.6457L15.4608 11.2919L10.2668 6.09296L9.91339 5.7392L9.55967 6.09267L6.09292 9.55697L5.7392 9.91044L6.09271 10.2641L11.2867 15.4606ZM27.95 8.85H28.45V8.35V1V0.5H27.95H23.05H22.55V1V8.35V8.85H23.05H27.95ZM18.6378 25.503C18.6361 21.7111 21.7082 18.6355 25.5002 18.6329C29.2931 18.6343 32.3683 21.7075 32.372 25.5005C32.3718 29.2923 29.2983 32.3663 25.5064 32.3671C21.7144 32.368 18.6394 29.2951 18.6378 25.503Z" stroke="black" stroke-opacity="0.2"/>
</svg>
